# xmcd CD database file
#
# Track frame offsets:
#	150
#	22647
#	45715
#	69930
#	94490
#	114810
#	136917
#	160422
#	185765
#
# Disc length: 2805 seconds
#
# Revision: 6
# Processed by: cddbd v1.5.2PL0 Copyright (c) Steve Scherf et al.
# Submitted via: CDex 1.70beta2
#
DISCID=6e0af309
DTITLE=Marco Masini - T'innamorerai
DYEAR=1993
DGENRE=Italiana
TTITLE0=Vaffanculo
TTITLE1=T'innamorerai
TTITLE2=Cantano i ragazzi
TTITLE3=Paura d'amare
TTITLE4=Dio non c'è
TTITLE5=La libertà
TTITLE6=Voglio volare
TTITLE7=Anna viviamo
TTITLE8=Un piccolo Chopin
EXTD=YEAR: 1993
EXTT0=
EXTT1=
EXTT2=
EXTT3=
EXTT4=
EXTT5=
EXTT6=
EXTT7=
EXTT8=
PLAYORDER=
